<?xml version="1.0" encoding="utf-8"?>
<!-- Uploaded to: SVG Repo, www.svgrepo.com, Generator: SVG Repo Mixer Tools -->
<svg width="800px" height="800px" viewBox="-21.99 0 312.361 312.361" xmlns="http://www.w3.org/2000/svg"><defs><style>.a{fill:#ffffff;}.b{fill:#211715;}.c{fill:#6dbf6b;}.d{fill:#bd957a;}.e{fill:#ffda71;}</style></defs><path class="a" d="M125.889,25.5a.15.15,0,0,0,.293,0c.576-2.43,1.772-6.434,3.6-8.159a14.7,14.7,0,0,1,7.373-3.314.152.152,0,0,0-.008-.3c-3.254-.47-5.95-1.446-7.992-4a13.525,13.525,0,0,1-2.79-7.579.15.15,0,0,0-.3-.024,24.412,24.412,0,0,1-3.227,7.77c-1.856,2.357-4.3,3.079-8.149,3.812a.153.153,0,0,0,.012.3,12.82,12.82,0,0,1,7.969,3.621C124.563,19.352,125.479,23.832,125.889,25.5Z"/><path class="a" d="M254.215,188.945a.161.161,0,0,0,.314,0c.616-2.6,1.894-6.879,3.848-8.724a15.718,15.718,0,0,1,7.884-3.544.162.162,0,0,0-.009-.321c-3.479-.5-6.361-1.547-8.545-4.273a14.456,14.456,0,0,1-2.983-8.1.161.161,0,0,0-.318-.025c-.628,2.714-2.129,6.629-3.451,8.309-1.984,2.52-4.6,3.291-8.714,4.076a.163.163,0,0,0,.014.323,13.715,13.715,0,0,1,8.521,3.873C252.8,182.374,253.777,187.165,254.215,188.945Z"/><path class="a" d="M11.5,139.713a.127.127,0,0,0,.247,0c.484-2.042,1.488-5.407,3.024-6.858a12.353,12.353,0,0,1,6.2-2.785.128.128,0,0,0-.007-.253c-2.735-.4-5-1.216-6.718-3.359a11.376,11.376,0,0,1-2.345-6.371.126.126,0,0,0-.249-.02A20.543,20.543,0,0,1,8.936,126.6c-1.56,1.981-3.614,2.587-6.85,3.2a.128.128,0,0,0,.011.254A10.775,10.775,0,0,1,8.8,133.1C10.385,134.547,11.154,138.313,11.5,139.713Z"/><path class="b" d="M252.8,190.36l.158.124a2.084,2.084,0,0,0,2.828,0,3.73,3.73,0,0,0,.964-2.168c.207-.773.436-1.541.694-2.3a13.036,13.036,0,0,1,1.889-3.9,9.127,9.127,0,0,1,3.459-2.369,15.076,15.076,0,0,1,2.508-.848c.894-.224,1.87-.214,2.51-.974a2.062,2.062,0,0,0,0-2.829,3.658,3.658,0,0,0-2.349-.9,17,17,0,0,1-2.293-.613,8.711,8.711,0,0,1-3.423-2.206,10.312,10.312,0,0,1-2.353-4.054c-.454-1.468-.3-3.815-1.4-4.914a2.018,2.018,0,0,0-2.424-.313c-1.457,1.09-1.646,3.5-2.273,5.15a14.319,14.319,0,0,1-1.958,3.851,7.193,7.193,0,0,1-3.224,2.215,20.365,20.365,0,0,1-2.4.679c-1.01.233-2.322.231-3.018,1.1a2.056,2.056,0,0,0,0,2.829c.754.78,1.676.705,2.661.9a12.014,12.014,0,0,1,2.358.692,11.15,11.15,0,0,1,3.928,2.717c1.648,1.9,2.073,4.88,2.649,7.25.607,2.5,4.465,1.442,3.857-1.063-.734-3.02-1.424-6.387-3.5-8.811a15.718,15.718,0,0,0-10.389-4.943l1.414.586-.149-.155v2.829l.135-.169-.882.514c3.388-.654,6.9-1.524,9.282-4.214,2.274-2.571,3.493-6.286,4.28-9.567l-.919,1.195.167-.125-2.424-.313.15.15-.585-1.414c.418,3.748,1.446,7.266,4.065,10.1a14.813,14.813,0,0,0,8.932,4.208l-.883-.514.144.161V175.1l-.135.161.883-.514c-3.313.53-7.178,2.028-9.352,4.7-2.045,2.518-3.029,5.854-3.777,8.961l.514-.883-.156.126h2.828l-.158-.125a2.062,2.062,0,0,0-2.828,0A2.014,2.014,0,0,0,252.8,190.36Z"/><path class="b" d="M10.084,141.127l.124.1a2.085,2.085,0,0,0,2.829,0c.906-.728,1.048-2.631,1.413-3.7a9.708,9.708,0,0,1,1.442-2.961,7.394,7.394,0,0,1,2.565-1.709,11.615,11.615,0,0,1,1.869-.624c.783-.2,1.6-.205,2.162-.876a2.058,2.058,0,0,0,0-2.828c-.865-.964-2.658-.873-3.837-1.3a6.473,6.473,0,0,1-2.5-1.625,7.616,7.616,0,0,1-1.74-3c-.387-1.251-.271-3.108-1.215-4.051a2.017,2.017,0,0,0-2.423-.313,3.449,3.449,0,0,0-1.286,2.2q-.3,1.065-.7,2.1a12.047,12.047,0,0,1-1.429,2.838,5.128,5.128,0,0,1-2.345,1.632,16.47,16.47,0,0,1-1.887.533c-.878.2-1.953.217-2.561.972a2.056,2.056,0,0,0,0,2.829c.933.965,2.8.8,4.032,1.317a8.619,8.619,0,0,1,3,2.068A8.354,8.354,0,0,1,8.8,137.32c.3.963.529,1.945.767,2.925.607,2.5,4.465,1.441,3.857-1.064-.595-2.449-1.169-5.155-2.861-7.114A12.819,12.819,0,0,0,2.1,128.056l1.414.586-.117-.122v2.829l.106-.133-.882.514c2.738-.528,5.561-1.254,7.485-3.423,1.842-2.075,2.838-5.054,3.474-7.709l-.919,1.2.132-.1-2.424-.313.118.118L9.9,120.086a13.871,13.871,0,0,0,3.322,8.24,12,12,0,0,0,7.209,3.419l-.882-.515.113.126v-2.828l-.106.126.882-.514c-2.676.429-5.779,1.657-7.539,3.808a17.911,17.911,0,0,0-3.08,7.233l.514-.883-.123.1h2.829l-.124-.1a2.064,2.064,0,0,0-2.829,0A2.014,2.014,0,0,0,10.084,141.127Z"/><path class="a" d="M168.991,73.7l1.56-6.81c-.807.583-1.456,1.049-1.456,1.049a56.906,56.906,0,0,1-7.486,6.7l-.749,1.931a101.229,101.229,0,0,1-11.592,19.652s-3.665.135-7.736.275c.035,4.2.02,9.489-.034,15.45l-8.905-1.461a103.526,103.526,0,0,1-21.581-8.886A144.439,144.439,0,0,1,96.2,91.68c-3.94.75-6.381,1.274-11.054,2.165,17.667,14.132,35.158,26.486,56.1,37.141-.414,24.574-1.153,52.358-1.612,63.729-.006.154-.012.3-.018.452l19.275,0c-1.713-11.563-4.53-64.074-5.42-77.893l.1-.206C160.6,102.614,165.136,88.637,168.991,73.7Z"/><path class="a" d="M150.348,309.928c6.167,0,12.19.008,14.661.023,1.7.011,3.427.022,5.151-.01,5.949-.1,11.909-.575,17.028-2.7,9.983-4.13,13.793-13.07,16.433-21.19A323.26,323.26,0,0,0,219.2,199.98c.021-.479.042-.979.063-1.468-.6-3.491-1.777-6.29-4.853-8.514-2.9-2.086-6.428-3.076-9.9-3.938-18.288-4.579-37.518-5.844-56.256-6.048-6.482.115-12.9.32-19.254.78a199.583,199.583,0,0,0-34.376,5.268c-3.47.862-6.993,1.852-9.9,3.938-3.1,2.235-4.268,5.065-4.853,8.578a322.117,322.117,0,0,0,12.164,76.031c1.1,3.831,2.246,7.631,3.481,11.441,2.628,8.12,6.438,17.06,16.411,21.19,6.6,2.735,14.591,2.756,22.19,2.713C136.8,309.935,143.657,309.927,150.348,309.928Z"/><path class="c" d="M172.83,76.707a68.1,68.1,0,0,1-2.12-9.935c-.881.636-1.615,1.163-1.615,1.163-5.784,5.933-8.106,7.241-13.793,10.827-2.367,1.493-5.5,2.285-7.681,1.454-2.274-.866-4.165-2.975-5.519-5.171a20.17,20.17,0,0,1-2.791-7.583,11.115,11.115,0,0,1,2.411-8.873c2.254-2.474,5.534-3.343,8.795-3.594a52.076,52.076,0,0,1,7.147.363l5.577-8.041a68.087,68.087,0,0,1,8.958-8.674c2.86-2.18,6.008-3.854,9-3.427,2.86.408,5.05,2.939,5.933,5.69s.714,5.715.535,8.6c-.176,2.84-1.483,8.3-3.02,10.7l-.749,1.456c.959.687,1.889,1.427,2.794,2.2a63.294,63.294,0,0,1,5.234,4.6c1.965,2.068,3.582,4.548,3.595,7.468a9.7,9.7,0,0,1-3.625,7.156,17.392,17.392,0,0,1-6.426,2.911c-2.161.631-4.433,1.259-6.411.491a9.419,9.419,0,0,1-4.646-5.175c-.58-1.464-1.107-3.006-1.58-4.6"/><path class="b" d="M164.938,49.014a62.381,62.381,0,0,1,8.021-7.927c2.362-1.95,6.768-5.153,9.854-2.577,3.186,2.659,2.754,7.684,2.422,11.376a22.262,22.262,0,0,1-2.663,9.1c-1.627,2.636,2.524,5.05,4.144,2.423a25.692,25.692,0,0,0,3-9.137c.641-3.844.944-8.255-.274-12.007s-4.192-7-8.248-7.452c-4.222-.475-8.128,2.055-11.268,4.581a60.84,60.84,0,0,0-8.384,8.223,2.465,2.465,0,0,0,0,3.394,2.42,2.42,0,0,0,3.394,0Z"/><path class="b" d="M151.34,97.43a112.268,112.268,0,0,0,11.593-19.652,2.472,2.472,0,0,0-.861-3.283,2.419,2.419,0,0,0-3.284.861A112.136,112.136,0,0,1,147.2,95.007a2.419,2.419,0,0,0,.861,3.284,2.456,2.456,0,0,0,3.284-.861Z"/><path class="b" d="M95.51,209.385c7.791,2.567,16.107,3.6,24.222,4.576q7.209.87,14.462,1.268a236.128,236.128,0,0,0,42.27-1.518c8.746-1.106,17.96-1.945,26.223-5.193a2.473,2.473,0,0,0,1.676-2.952,2.417,2.417,0,0,0-2.952-1.676c-7.243,2.847-15.177,3.71-22.836,4.746q-11.4,1.541-22.9,1.961a227.034,227.034,0,0,1-33.042-1.1c-8.65-.936-17.553-2-25.845-4.736-2.941-.969-4.2,3.664-1.276,4.628Z"/><path class="b" d="M157.463,182.606c16.02.529,32.117,2.021,47.664,6.086,3.253.85,6.781,1.9,9.19,4.381a8.546,8.546,0,0,1,1.949,3.251,12.02,12.02,0,0,1,.548,2.088,12.734,12.734,0,0,1-.043,2.282q-.529,12.011-1.975,23.959a320.889,320.889,0,0,1-9.442,47.284q-1.656,5.958-3.528,11.851a72.139,72.139,0,0,1-2.856,7.885c-2.35,5.2-5.743,9.784-10.874,12.5-6.624,3.5-14.627,3.422-21.923,3.387q-6.148-.029-12.3-.029-7.445,0-14.89.007c-5.367.01-10.759.186-16.111-.28-6.523-.568-12.87-2.492-17.466-7.365-3.724-3.948-5.813-9.1-7.475-14.18a324.952,324.952,0,0,1-11.578-47.184q-2-11.9-3.063-23.921-.541-6.09-.848-12.2a16.423,16.423,0,0,1,.152-5.117,9.932,9.932,0,0,1,1.634-3.552c1.962-2.573,5.337-3.784,8.33-4.647,3.791-1.093,7.674-1.924,11.544-2.681a205.949,205.949,0,0,1,24.179-3.164c3.939-.3,7.883-.49,11.831-.628,3.08-.108,3.094-4.908,0-4.8-8.511.3-17.005.908-25.448,2.036-4.285.573-8.553,1.264-12.792,2.116A104.177,104.177,0,0,0,89.845,184.9c-3.415,1.125-6.888,2.787-9.178,5.653a14.538,14.538,0,0,0-3.121,9.7q.549,12.7,2.118,25.338a327.946,327.946,0,0,0,10.2,50.115C93.431,288.146,97.006,303.134,110,309c7.195,3.247,15.249,3.392,23.009,3.362q6.5-.026,13-.029,7.659,0,15.32.01c6.335.015,12.692.194,18.975-.772,6.975-1.073,13.538-4.145,18.049-9.693,3.949-4.856,6.151-10.676,8.03-16.577a329.224,329.224,0,0,0,11.661-49.373q1.95-12.562,2.93-25.252.243-3.2.421-6.412c.1-1.89.35-3.856.272-5.747a14.272,14.272,0,0,0-4.216-9.093c-2.788-2.692-6.538-4.123-10.213-5.133-4-1.1-8.065-1.966-12.139-2.722a226.151,226.151,0,0,0-25.176-3.124c-4.148-.3-8.3-.5-12.458-.634-3.089-.1-3.086,4.7,0,4.8Z"/><path class="b" d="M142.013,195.167c.547-13.307.842-26.626,1.145-39.94.371-16.225.7-32.454.779-48.683.03-5.707.1-11.433-.162-17.137-.142-3.075-4.943-3.093-4.8,0,.571,12.373.131,24.837-.061,37.213q-.382,24.725-1.081,49.444c-.178,6.368-.358,12.737-.62,19.1-.127,3.088,4.673,3.083,4.8,0Z"/><path class="b" d="M161.2,194.533c-.021-.147-.04-.294-.063-.44-.046-.3.078.627.006.038-.05-.405-.1-.81-.148-1.215q-.158-1.368-.29-2.737c-.222-2.244-.414-4.492-.6-6.74-.48-5.905-.89-11.816-1.282-17.728-.834-12.556-1.569-25.119-2.31-37.681-.247-4.173-.475-8.349-.768-12.52a2.458,2.458,0,0,0-2.4-2.4,2.419,2.419,0,0,0-2.4,2.4c.659,9.364,1.129,18.742,1.692,28.112.766,12.731,1.534,25.465,2.537,38.18.368,4.674.713,9.367,1.4,14.007a2.415,2.415,0,0,0,2.952,1.676,2.46,2.46,0,0,0,1.676-2.952Z"/><path class="b" d="M184.97,153.1a112.163,112.163,0,0,1-27.717,14.716,2.461,2.461,0,0,0-1.676,2.952,2.421,2.421,0,0,0,2.952,1.676,114.294,114.294,0,0,0,15.134-6.547,121.349,121.349,0,0,0,13.729-8.652,2.468,2.468,0,0,0,.861-3.284,2.419,2.419,0,0,0-3.283-.861Z"/><path class="b" d="M128.022,164.968c-14.048-3.585-26.676-11.379-38.047-20.19a2.481,2.481,0,0,0-3.394,0,2.417,2.417,0,0,0,0,3.4C98.619,157.5,111.855,165.8,126.746,169.6c3,.764,4.272-3.864,1.276-4.629Z"/><path class="c" d="M92.573,142.328a14.276,14.276,0,0,0,3.978-3.2,2.3,2.3,0,0,0,.594-1.156,2.4,2.4,0,0,0-.916-1.828c-2.6-2.576-6.136-3.964-9.659-4.947-6.21-1.733-14.138-3.228-20.524-1.769a19.033,19.033,0,0,0-9.933,6.054c-2.724,3.031-5.744,6.9-6.515,10.984a5.881,5.881,0,0,0,.888,4.821,6.3,6.3,0,0,0,3.253,1.856,22.4,22.4,0,0,0,11.493-.335c4.019-1.019,8.016-2.406,11.936-3.752A94.251,94.251,0,0,0,88.5,144.4C89.22,144.045,91.2,143.12,92.573,142.328Z"/><path class="b" d="M93.785,144.4a15.947,15.947,0,0,0,4.854-4.078c1.464-1.983.922-4.19-.712-5.873-2.839-2.921-6.877-4.485-10.719-5.564-7.618-2.141-16.827-3.978-24.452-.937a24.072,24.072,0,0,0-9.4,7.053c-2.651,3.113-5.3,6.719-6.068,10.829a8.947,8.947,0,0,0,.7,6.032,8.17,8.17,0,0,0,5.117,3.6c4.41,1.254,9.108.635,13.464-.515a148.674,148.674,0,0,0,14.79-4.853,89.892,89.892,0,0,0,12.43-5.691c2.686-1.524.27-5.672-2.423-4.144-6.1,3.463-12.748,5.836-19.386,8.036a58.831,58.831,0,0,1-10.874,2.9,17.9,17.9,0,0,1-5.37-.046c-1.177-.212-2.985-.511-3.6-1.707-.611-1.178-.193-2.725.189-3.9A17.994,17.994,0,0,1,54.79,140.9a26.013,26.013,0,0,1,6.376-6.729c5.489-3.726,12.432-3.3,18.673-2.108a44.6,44.6,0,0,1,10.513,2.993,18.989,18.989,0,0,1,2.473,1.381c.278.185.548.377.808.587.212.171.916,1.057,1.147,1.075s.061-.672.074-.67a14.256,14.256,0,0,0-1.183,1.226,14.339,14.339,0,0,1-2.309,1.6C88.7,141.824,91.116,145.975,93.785,144.4Z"/><path class="c" d="M231.573,76.6c2.819.668,5.471,1.774,6.731,3.854,1.207,1.992.749,4.649-.514,6.605a18.809,18.809,0,0,1-5.084,4.726c-1.859,1.341-3.828,2.725-6.1,2.991a10.929,10.929,0,0,1-6.786-1.783,50.629,50.629,0,0,1-13.692-13.977,1.865,1.865,0,0,1-.427-1.355c.132-.589.768-.9,1.336-1.1,5.576-2.016,11.626-1.944,17.42-1.087C226.369,75.75,229.038,76,231.573,76.6Z"/><path class="b" d="M230.935,78.912c1.753.429,3.938.976,5.117,2.473s.349,3.646-.686,4.961a22.673,22.673,0,0,1-5.652,4.6,6.974,6.974,0,0,1-5.8,1.238,15.41,15.41,0,0,1-5.786-3.417,51.225,51.225,0,0,1-5.337-5.058c-.873-.953-1.72-1.937-2.512-2.96-.725-.936-1.3-2.064-2.08-2.946l-.1-.158q-.446-.858-.424,1.23c-.218-.088,9.972-2.2.426-.156.583-.125,1.158-.371,1.736-.524a25.4,25.4,0,0,1,3.8-.713,41.225,41.225,0,0,1,9.027.149,77.381,77.381,0,0,1,8.273,1.283c3.007.686,4.291-3.941,1.276-4.629a87.186,87.186,0,0,0-10-1.5,41.017,41.017,0,0,0-10.111.093,29.153,29.153,0,0,0-4.412.939c-1.669.5-3.58,1.116-4.2,2.937-.586,1.713.314,3.144,1.259,4.517.92,1.336,1.91,2.629,2.943,3.88a51.614,51.614,0,0,0,6.71,6.741c2.418,2.017,4.953,4.04,8.047,4.873a11.545,11.545,0,0,0,9.323-1.439,27.7,27.7,0,0,0,7.246-5.9c2.244-2.82,3.328-6.9,1.362-10.181-1.719-2.871-5.067-4.2-8.166-4.957C229.211,73.548,227.931,78.176,230.935,78.912Z"/><path class="b" d="M175.145,76.069a65.819,65.819,0,0,1-2.659-16.593c0-.124.038-.564-.023-.627-.2-.2-.666.579-.74.458.075.123,1.088.077,1.284.1a18.3,18.3,0,0,1,3.729.984A25.833,25.833,0,0,1,183,63.956c1.94,1.429,3.826,3.033,5.616,4.645a13.94,13.94,0,0,1,4.128,5.31,6.3,6.3,0,0,1-1.1,6.016A10.677,10.677,0,0,1,186,83.333c-2.2.68-5.062,1.938-7.092.289-2.226-1.808-2.973-4.934-3.758-7.553-.886-2.952-5.52-1.7-4.629,1.276.972,3.241,2.017,6.629,4.419,9.122,2.593,2.693,5.9,3.16,9.425,2.319,3.255-.776,6.62-1.843,9.23-4.006a12.113,12.113,0,0,0,4.3-8.255c.519-6.64-5.629-11.173-10.155-14.91a34.434,34.434,0,0,0-8.205-5.233,22.6,22.6,0,0,0-4.448-1.454,9.749,9.749,0,0,0-4.724-.2c-2.014.643-2.7,2.587-2.683,4.519a55.812,55.812,0,0,0,.447,6.084,73.493,73.493,0,0,0,2.391,12.017c.863,2.959,5.5,1.7,4.629-1.276Z"/><path class="b" d="M161.9,53.326c-5.356-.427-11-1.568-16.25.129a12.58,12.58,0,0,0-8.873,12.277,20.577,20.577,0,0,0,6.487,14.513,9.431,9.431,0,0,0,7.549,2.618c2.872-.345,5.212-1.72,7.611-3.233a67.286,67.286,0,0,0,12.365-10c2.162-2.209-1.229-5.606-3.394-3.394a55.692,55.692,0,0,1-8.913,7.653c-1.66,1.1-3.34,2.255-5.09,3.2-1.524.828-3.6,1.492-5.268.734-1.947-.885-3.333-2.874-4.353-4.673a16.974,16.974,0,0,1-2.149-6.333c-.425-3.8,1.406-7.427,5.12-8.679,4.837-1.629,10.213-.413,15.158-.019a2.42,2.42,0,0,0,2.4-2.4,2.447,2.447,0,0,0-2.4-2.4Z"/><path class="c" d="M129.4,171.058c-2.5,1.466-5.179,2.5-7.528,1.867-2.249-.605-3.754-2.841-4.194-5.128a18.834,18.834,0,0,1,.408-6.93c.417-2.254.882-4.615,2.344-6.381a10.933,10.933,0,0,1,6.136-3.4,50.629,50.629,0,0,1,19.557.637,1.871,1.871,0,0,1,1.245.684,1.851,1.851,0,0,1-.2,1.722c-2.636,5.31-7.058,9.44-11.837,12.826C133.746,168.073,131.646,169.74,129.4,171.058Z"/><path class="b" d="M128.188,168.985c-1.544.888-3.449,1.956-5.306,1.712a3.657,3.657,0,0,1-2.727-2.855c-.59-2.055-.136-4.285.244-6.337.34-1.83.623-3.965,1.843-5.454,2.48-3.028,7.179-3.087,10.738-3.2a51.858,51.858,0,0,1,6.792.225q1.577.156,3.134.431.867.153,1.728.339c.284.061.567.126.85.193q.627.148.186.066l-.618-1.059q.131-.426.04-.128c-.122.247-.249.491-.379.734q-.39.723-.825,1.422a25.439,25.439,0,0,1-1.514,2.185,34.162,34.162,0,0,1-4.239,4.441,66.255,66.255,0,0,1-9.947,7.288c-2.649,1.584-.238,5.735,2.423,4.145a83.157,83.157,0,0,0,7.74-5.442,43.142,43.142,0,0,0,6.767-6.248,34.325,34.325,0,0,0,2.695-3.6c.886-1.377,2.034-3.078,2.095-4.761.142-3.939-5.145-4.162-7.932-4.542a53.294,53.294,0,0,0-10.123-.44c-3.173.174-6.454.452-9.348,1.854a11.316,11.316,0,0,0-5.891,6.713,29.013,29.013,0,0,0-.969,4.254,23.732,23.732,0,0,0-.535,5.5c.194,3.335,1.718,6.859,4.9,8.351,3.554,1.667,7.433.184,10.6-1.639C133.288,171.591,130.873,167.442,128.188,168.985Z"/><path class="b" d="M183.908,101.716c8.11,2.913,17.538-.387,22.426-7.357a2.421,2.421,0,0,0-.861-3.284,2.449,2.449,0,0,0-3.283.861,14.987,14.987,0,0,1-17.006,5.151,2.423,2.423,0,0,0-2.952,1.677,2.449,2.449,0,0,0,1.676,2.952Z"/><path class="b" d="M155.641,118.283a235.19,235.19,0,0,0,15.665-43.949c.774-2.992-3.855-4.269-4.629-1.276-3.8,14.7-8.545,29.122-15.18,42.8a2.463,2.463,0,0,0,.861,3.284,2.421,2.421,0,0,0,3.283-.861Z"/><path class="b" d="M133.231,108.168a111.637,111.637,0,0,1-21.007-8.643c-2.719-1.466-5.146,2.677-2.423,4.145a118.169,118.169,0,0,0,22.154,9.127c2.964.892,4.231-3.74,1.276-4.629Z"/><path class="b" d="M142.465,128.919a300.739,300.739,0,0,1-42.726-26.8Q94.045,97.887,88.5,93.467a2.476,2.476,0,0,0-3.394,0,2.417,2.417,0,0,0,0,3.394,352.771,352.771,0,0,0,41.727,29.008q6.505,3.78,13.213,7.195c2.747,1.4,5.178-2.74,2.423-4.145Z"/><path class="b" d="M139.7,48.389a5.14,5.14,0,0,1,2.876-5.249,20.072,20.072,0,0,1,4.587-.958,14.884,14.884,0,0,0,4.485-1.587c2.7-1.482,4.559-3.913,6.777-5.973,1.256-1.167,4.112-3.148,5.86-1.748a2.473,2.473,0,0,0,3.394,0,2.417,2.417,0,0,0,0-3.394c-2.965-2.374-6.781-2.164-9.984-.3-3.156,1.833-5,5.226-8.118,7.074-3.192,1.893-7.228,1.141-10.324,3.276a9.922,9.922,0,0,0-4.353,8.863,2.462,2.462,0,0,0,2.4,2.4,2.419,2.419,0,0,0,2.4-2.4Z"/><path class="b" d="M58.667,166.01c9.152,1.315,18.578-1.386,27.1-4.573a2.468,2.468,0,0,0,1.677-2.953,2.42,2.42,0,0,0-2.953-1.676,91.842,91.842,0,0,1-13.283,3.856,31.622,31.622,0,0,1-11.264.717,2.48,2.48,0,0,0-2.952,1.677,2.417,2.417,0,0,0,1.676,2.952Z"/><path class="b" d="M124.474,26.912l.148.117a2.085,2.085,0,0,0,2.828,0c1.014-.815,1.175-3.038,1.584-4.235a11.966,11.966,0,0,1,1.754-3.613,8.451,8.451,0,0,1,3.188-2.169,13.963,13.963,0,0,1,2.314-.78c.861-.215,1.788-.211,2.4-.944a2.06,2.06,0,0,0,0-2.829c-.951-1.061-3.082-.989-4.4-1.449a7.987,7.987,0,0,1-3.144-2.03,9.492,9.492,0,0,1-2.167-3.734c-.434-1.4-.3-3.6-1.348-4.653A2.02,2.02,0,0,0,125.214.28c-1.406,1.052-1.581,3.3-2.185,4.894a13.329,13.329,0,0,1-1.8,3.544,6.571,6.571,0,0,1-2.957,2.039,19.185,19.185,0,0,1-2.245.634c-.97.224-2.21.227-2.879,1.059a2.054,2.054,0,0,0,0,2.828c.725.752,1.6.688,2.545.874a11.19,11.19,0,0,1,2.174.634,10.259,10.259,0,0,1,3.648,2.52c1.519,1.767,1.91,4.528,2.443,6.723.607,2.5,4.465,1.442,3.857-1.063-.691-2.847-1.346-6.014-3.306-8.3a14.841,14.841,0,0,0-9.808-4.66l1.414.585-.139-.144v2.828l.127-.157-.883.514c3.191-.616,6.5-1.442,8.738-3.975,2.143-2.421,3.294-5.912,4.036-9l-.919,1.195.156-.117-2.424-.312.141.14-.586-1.414c.4,3.541,1.366,6.859,3.84,9.534a13.96,13.96,0,0,0,8.41,3.97l-.883-.515.135.151V12.459l-.126.151.882-.515c-3.12.5-6.753,1.916-8.8,4.433-1.93,2.371-2.861,5.509-3.566,8.437l.514-.883-.146.118h2.828l-.147-.117a2.065,2.065,0,0,0-2.829,0A2.015,2.015,0,0,0,124.474,26.912Z"/><path class="d" d="M114.354,40.318c-5.75.259-81.561,3.936-102.563,5.12.53,17.387,1.6,39.129,2.241,52.134,21.02-1.186,97.031-4.638,102.8-4.895C116.452,84.1,114.507,43.616,114.354,40.318Z"/><path class="a" d="M63.179,53.966c-7.748.406-12.75,7.487-12.337,15.445.479,9.212,5.851,14.77,13.887,14.349,8.223-.43,12.8-6.509,12.323-15.721C76.636,60.027,70.9,53.562,63.179,53.966Z"/><path class="b" d="M114.354,37.918c-10.446.472-20.889,1-31.333,1.514Q57.61,40.676,32.2,41.961c-6.8.348-13.607.694-20.408,1.077a2.437,2.437,0,0,0-2.4,2.4c.433,14.124,1.083,28.241,1.764,42.354q.236,4.89.477,9.78a2.431,2.431,0,0,0,2.4,2.4c14.156-.8,28.322-1.439,42.484-2.109q23.874-1.128,47.75-2.216,6.282-.287,12.564-.57a2.433,2.433,0,0,0,2.4-2.4c-.67-15.154-1.424-30.3-2.148-45.454q-.165-3.453-.328-6.905c-.144-3.076-4.945-3.093-4.8,0q1,21.365,2.031,42.727.227,4.815.445,9.632l2.4-2.4q-15.792.7-31.581,1.444-25.416,1.174-50.831,2.4c-6.8.333-13.592.664-20.386,1.047l2.4,2.4c-.657-13.361-1.3-26.722-1.82-40.089q-.232-6.021-.421-12.045l-2.4,2.4c14.07-.793,28.147-1.474,42.222-2.175q23.881-1.189,47.767-2.344c4.191-.2,8.382-.412,12.574-.6C117.43,42.579,117.447,37.778,114.354,37.918Z"/><path class="b" d="M63.179,51.566A15.769,15.769,0,0,0,48.812,64.614c-1.288,6.665.561,14.55,6.173,18.77,4.932,3.709,12.706,3.758,17.8.3,5.782-3.92,7.41-11.3,6.428-17.88-1.187-7.958-7.723-14.569-16.032-14.243-3.078.121-3.094,4.922,0,4.8,5.283-.207,9.437,3.386,10.89,8.349,1.347,4.6.738,10.6-2.611,13.908-2.969,2.929-8.574,3.642-12.3,1.73C54.827,78.126,53.086,72.872,53.226,68c.162-5.691,3.936-11.236,9.953-11.63a2.456,2.456,0,0,0,2.4-2.4A2.421,2.421,0,0,0,63.179,51.566Z"/><path class="b" d="M24.558,69a2.724,2.724,0,0,0-2.654,2.88,2.605,2.605,0,0,0,2.9,2.688,2.585,2.585,0,0,0,2.651-2.932A2.721,2.721,0,0,0,24.558,69Z"/><path class="b" d="M32.151,68.66A2.724,2.724,0,0,0,29.5,71.541a2.6,2.6,0,0,0,2.9,2.687A2.584,2.584,0,0,0,35.048,71.3,2.721,2.721,0,0,0,32.151,68.66Z"/><path class="b" d="M39.744,68.325a2.725,2.725,0,0,0-2.654,2.881,2.778,2.778,0,1,0,5.551-.245A2.722,2.722,0,0,0,39.744,68.325Z"/><path class="b" d="M87.609,82.74A11.445,11.445,0,0,1,88.652,79a12.394,12.394,0,0,1,2.868-3.28c1.262-1.113.676-2.923-.486-3.769-4.189-3.053-1.523-10.124,3.5-10.151a5.552,5.552,0,0,1,5.2,3.543c.819,2.137.448,5.048-1.3,6.484a2.412,2.412,0,0,0,.486,3.769c3.867,1.945,5.412,6.105,6.251,10.111.633,3.022,5.261,1.743,4.629-1.276-1.083-5.168-3.516-10.494-8.458-12.979l.486,3.769c2.507-2.061,3.354-5.729,3.012-8.853a10.517,10.517,0,0,0-5.132-8.006c-6.424-3.7-14.282.637-15.4,7.735a10.066,10.066,0,0,0,4.306,10l-.486-3.769a14.606,14.606,0,0,0-5.145,9.143,2.478,2.478,0,0,0,1.676,2.952,2.418,2.418,0,0,0,2.952-1.676Z"/><path class="b" d="M26.954,51.536c-1.917.066-3.834.083-5.75.166a2.523,2.523,0,0,0-1.7.7,2.4,2.4,0,0,0,1.7,4.1c1.916-.083,3.833-.1,5.75-.166a2.515,2.515,0,0,0,1.7-.7,2.4,2.4,0,0,0-1.7-4.1Z"/><path class="e" d="M211.976,113.959c7.218.875,13.96,4.125,18.315,10.09,7.757,10.623,5.82,27.76-4.188,36.295-10.767,9.182-29.278,7.488-38.106-3.565s-7.11-28.27,3.968-36.923C197.429,115.59,205.135,113.13,211.976,113.959Z"/><path class="b" d="M212.815,129.37c-1.74,1.78-3.237,3.786-4.9,5.635a2.531,2.531,0,0,0-.7,1.7,2.443,2.443,0,0,0,.7,1.7,2.4,2.4,0,0,0,3.394,0c1.664-1.849,3.161-3.855,4.9-5.635a2.49,2.49,0,0,0,.7-1.7,2.443,2.443,0,0,0-.7-1.7,2.414,2.414,0,0,0-1.7-.7,2.475,2.475,0,0,0-1.7.7Z"/><path class="b" d="M202.314,132.533c.527.611,1.034,1.237,1.528,1.875l-.375-.486c1.07,1.389,2.06,2.833,3.073,4.263a2.581,2.581,0,0,0,1.434,1.1,2.449,2.449,0,0,0,1.85-.242,2.425,2.425,0,0,0,1.1-1.434,2.365,2.365,0,0,0-.242-1.849c-1.6-2.256-3.169-4.528-4.977-6.624a2.4,2.4,0,0,0-4.1,1.7,2.659,2.659,0,0,0,.7,1.7Z"/><path class="b" d="M203.724,141.288c2-.1,4-.077,6-.059,1.787.017,3.6-.007,5.377.159a2.407,2.407,0,0,0,2.4-2.4,2.464,2.464,0,0,0-2.4-2.4c-1.78-.166-3.59-.142-5.377-.159-2-.018-4-.044-6,.059a2.4,2.4,0,1,0,0,4.8Z"/><path class="b" d="M203.492,147.615c3.679-.021,7.355-.038,11.033.067a2.421,2.421,0,0,0,2.4-2.4,2.447,2.447,0,0,0-2.4-2.4c-3.678-.105-7.354-.088-11.033-.067a2.4,2.4,0,1,0,0,4.8Z"/><path class="b" d="M207.251,136.281a101.179,101.179,0,0,0-.981,13.984,2.421,2.421,0,0,0,2.4,2.4,2.446,2.446,0,0,0,2.4-2.4q.089-3.252.268-6.5c.069-1.223.148-2.445.254-3.666.046-.543.1-1.086.16-1.628.013-.12.109-.907.055-.472s0,.02.014-.077c.019-.121.038-.243.058-.364A2.458,2.458,0,0,0,210.2,134.6a2.429,2.429,0,0,0-2.952,1.676Z"/><path class="b" d="M211.976,116.359a24.573,24.573,0,0,1,14.384,6.763,22.408,22.408,0,0,1,6.078,12.83c1.245,9.291-2.432,19.645-10.712,24.585-8.066,4.813-18.892,4.345-26.748-.675-8.061-5.151-11.65-15.381-9.713-24.594a23.147,23.147,0,0,1,8.129-13.5,25.921,25.921,0,0,1,18.582-5.407,2.414,2.414,0,0,0,2.4-2.4,2.457,2.457,0,0,0-2.4-2.4,30.178,30.178,0,0,0-19.618,5.067,27.688,27.688,0,0,0-10.623,13.552c-3.944,10.653-1.222,23.794,7.486,31.332a30.936,30.936,0,0,0,31.748,4.767c10.746-4.578,16.7-15.9,16.481-27.321a28.47,28.47,0,0,0-6.413-17.82c-4.778-5.7-11.822-8.656-19.061-9.577a2.413,2.413,0,0,0-2.4,2.4A2.46,2.46,0,0,0,211.976,116.359Z"/></svg>