<!DOCTYPE svg PUBLIC "-//W3C//DTD SVG 1.1//EN" "http://www.w3.org/Graphics/SVG/1.1/DTD/svg11.dtd">
<!-- Uploaded to: SVG Repo, www.svgrepo.com, Transformed by: SVG Repo Mixer Tools -->
<svg height="64px" width="64px" version="1.1" id="Layer_1" xmlns="http://www.w3.org/2000/svg" xmlns:xlink="http://www.w3.org/1999/xlink" viewBox="-256 -256 1024.00 1024.00" xml:space="preserve" fill="#000000">
<g id="SVGRepo_bgCarrier" stroke-width="0"/>
<g id="SVGRepo_tracerCarrier" stroke-linecap="round" stroke-linejoin="round"/>
<g id="SVGRepo_iconCarrier"> <path style="fill:#B9E678;" d="M311.281,125.996c80.77,48.139,153.002,162.713,153.002,249.831 c0,73.099-40.055,128.174-152.206,128.174h-56.076h-56.077c-112.152,0-152.207-55.075-152.207-128.174 c0-87.118,72.098-200.272,150.015-248.761L311.281,125.996z"/> <path style="fill:#9BDC6E;" d="M97.278,375.828c0-87.118,72.098-202.342,150.015-250.831h-48.014 C121.362,173.486,47.717,288.71,47.717,375.828c0,73.099,40.055,128.174,152.206,128.174h49.561 C137.333,504.001,97.278,448.927,97.278,375.828z"/> <path style="fill:#B9E678;" d="M207.936,95.448l-24.584-75.803c-2.395-8.313,2.488-13.323,10.858-11.139 c0,0,33.067,10.493,44.186,13.66c8.32,2.369,22.111,2.357,30.422-0.026c11.003-3.16,43.726-13.61,43.726-13.61 c8.362-2.195,13.245,2.803,10.85,11.115l-19.326,75.803H207.936z"/> <path style="fill:#9BDC6E;" d="M208.394,12.979c-7.957-2.495-14.185-4.472-14.185-4.472c-8.37-2.185-13.253,2.826-10.858,11.139 l24.583,75.803h25.281l-24.584-75.803C207.889,17.065,207.849,14.806,208.394,12.979z"/> <path style="fill:#82C85A;" d="M320.087,111.47c0,8.812-7.21,16.021-16.021,16.021h-96.13c-8.812,0-16.021-7.21-16.021-16.021l0,0 c0-8.813,7.209-16.021,16.021-16.021h96.13C312.877,95.448,320.087,102.657,320.087,111.47L320.087,111.47z"/> <path style="fill:#73AF55;" d="M227.28,111.47c0-8.813,7.21-16.021,16.021-16.021h-35.367c-8.812,0-16.021,7.209-16.021,16.021 s7.209,16.021,16.021,16.021h35.367C234.49,127.491,227.28,120.281,227.28,111.47z"/> <circle style="fill:#FFFFFF;" cx="256.284" cy="319.996" r="103.001"/> <path style="fill:#9BDC6E;" d="M256,303.731c-21.713,0-40.055-12.842-40.055-28.038c0-15.195,18.341-28.037,40.055-28.037 c18.056,0,34.409,9.016,38.885,21.438c0.779,2.151,1.17,4.373,1.17,6.599c0,8.848,7.173,16.021,16.021,16.021 c8.848,0,16.021-7.174,16.021-16.021c0-5.941-1.033-11.813-3.066-17.461c-7.605-21.109-28.013-36.313-53.01-40.976v-1.645 c0-8.848-7.174-16.021-16.021-16.021c-8.847,0-16.021,7.174-16.021,16.021v1.547c-32.057,6.094-56.076,29.997-56.076,58.534 c0,33.131,32.344,60.082,72.098,60.082c21.712,0,40.055,12.841,40.055,28.038c0,15.195-18.341,28.037-40.055,28.037 s-40.055-12.842-40.055-28.037c0-8.849-7.174-16.021-16.021-16.021c-8.848,0-16.021,7.173-16.021,16.021 c0,28.536,24.019,52.44,56.076,58.534v1.547c0,8.848,7.174,16.021,16.021,16.021c8.847,0,16.021-7.174,16.021-16.021v-1.547 c32.057-6.094,56.076-29.997,56.076-58.534C328.098,330.681,295.754,303.731,256,303.731z"/> <g> <path style="fill:#2D2B29;" d="M425.314,232.777c-27.556-44.901-64.014-84.102-100.847-108.644 c2.292-3.68,3.621-8.019,3.621-12.663c0-9.77-5.865-18.189-14.257-21.939l17.286-67.8c1.908-6.755,0.675-13.008-3.392-17.173 c-4.093-4.19-10.367-5.565-17.213-3.765c-0.135,0.035-0.27,0.074-0.402,0.116c-0.326,0.104-32.734,10.45-43.498,13.542 c-6.928,1.985-19.089,1.997-26.025,0.021C229.71,11.373,196.959,0.985,196.629,0.88c-0.132-0.042-0.266-0.081-0.399-0.115 c-6.848-1.787-13.122-0.408-17.213,3.787c-4.091,4.195-5.313,10.503-3.353,17.307c0.024,0.085,0.05,0.169,0.078,0.253 l21.937,67.641c-8.128,3.854-13.765,12.139-13.765,21.716c0,4.646,1.329,8.983,3.622,12.663 c-36.833,24.542-73.291,63.744-100.847,108.644C56.4,282.13,39.718,332.933,39.718,375.828c0,41.456,12.289,74.189,36.527,97.289 c27.07,25.802,68.683,38.885,123.68,38.885h112.153c54.998,0,96.609-13.082,123.68-38.885 c24.237-23.101,36.526-55.834,36.526-97.289C472.283,332.934,455.603,282.13,425.314,232.777z M272.067,119.491 c-0.002,0-0.005,0-0.008,0h-32.112c-0.006,0-0.012,0-0.018,0h-31.993c-4.423,0-8.021-3.599-8.021-8.021 c0-4.417,3.59-8.012,8.006-8.021c0.005,0,0.009,0.001,0.014,0.001c0.008,0,0.017-0.002,0.025-0.002h40.007 c0.009,0,0.018,0.002,0.026,0.002c0.014,0,0.028-0.002,0.042-0.002h15.934c0.014,0,0.027,0.002,0.042,0.002 c0.009,0,0.017-0.002,0.026-0.002h40.031c4.423,0,8.021,3.599,8.021,8.021s-3.599,8.021-8.021,8.021L272.067,119.491 L272.067,119.491z M190.757,16.003c0.321,0.02,0.741,0.076,1.259,0.201c3.181,1.009,33.441,10.597,44.188,13.657 c9.768,2.78,25.062,2.769,34.821-0.031c10.628-3.053,40.553-12.594,43.723-13.606c0.506-0.123,0.919-0.18,1.237-0.201 c-0.032,0.354-0.111,0.824-0.28,1.408c-0.022,0.079-0.044,0.158-0.064,0.238L297.85,87.448h-22.021l11.633-29.083 c1.641-4.102-0.354-8.758-4.457-10.398c-4.103-1.64-8.758,0.354-10.399,4.457l-14.01,35.024h-5.189l-14.01-35.024 c-1.641-4.104-6.296-6.098-10.399-4.457c-4.102,1.641-6.098,6.297-4.457,10.398l11.633,29.083h-22.422l-22.743-70.126 C190.857,16.777,190.786,16.337,190.757,16.003z M312.077,496.001H199.924c-95.688,0-144.207-40.433-144.207-120.174 c0-81.498,66.433-191.734,145.285-241.36c2.196,0.664,4.523,1.024,6.933,1.024h17.095l-7.729,11.595 c-2.451,3.676-1.458,8.644,2.219,11.094c1.364,0.909,2.905,1.345,4.43,1.345c2.585,0,5.122-1.251,6.664-3.563l13.646-20.47h23.48 l13.646,20.47c1.542,2.313,4.078,3.563,6.664,3.563c1.525,0,3.066-0.436,4.43-1.345c3.676-2.45,4.67-7.418,2.219-11.094 l-7.729-11.595h17.095c2.41,0,4.736-0.36,6.933-1.024c78.852,49.627,145.285,159.862,145.285,241.36 C456.283,455.57,407.765,496.001,312.077,496.001z"/> <path style="fill:#2D2B29;" d="M256,255.654c14.56,0,28.041,6.943,31.361,16.16c0.459,1.27,0.692,2.574,0.692,3.877 c0,13.245,10.776,24.021,24.021,24.021c13.245,0,24.021-10.776,24.021-24.021c0-6.862-1.191-13.648-3.541-20.173 c-7.882-21.878-27.475-38.307-53.037-44.802c-2.267-10.906-11.952-19.128-23.521-19.128c-11.545,0-21.214,8.188-23.506,19.061 c-14.892,3.899-28.328,11.508-38.313,21.784c-11.788,12.132-18.279,27.494-18.279,43.258c0,37.541,35.931,68.082,80.098,68.082 c18.346,0,32.054,10.579,32.054,20.037c0,9.459-13.708,20.038-32.054,20.038s-32.054-10.579-32.054-20.038 c0-13.245-10.776-24.021-24.021-24.021S175.9,350.565,175.9,363.811c0,15.764,6.491,31.126,18.278,43.259 c9.984,10.276,23.42,17.885,38.313,21.784c2.292,10.873,11.961,19.061,23.506,19.061c11.545,0,21.214-8.188,23.506-19.061 c14.892-3.899,28.328-11.508,38.313-21.784c11.787-12.132,18.278-27.494,18.278-43.259c0-37.54-35.931-68.081-80.098-68.081 c-18.346,0-32.054-10.579-32.054-20.038C223.946,266.234,237.654,255.654,256,255.654z M256,311.731 c35.343,0,64.098,23.363,64.098,52.081c0,23.903-20.847,45.216-49.57,50.676c-3.774,0.718-6.506,4.018-6.506,7.859v1.547 c0,4.423-3.599,8.021-8.021,8.021c-4.422,0-8.021-3.599-8.021-8.021v-1.547c0-3.842-2.731-7.142-6.506-7.859 c-28.723-5.46-49.57-26.771-49.57-50.676c0-4.423,3.599-8.021,8.021-8.021s8.021,3.599,8.021,8.021 c0,19.871,21.557,36.038,48.055,36.038s48.055-16.167,48.055-36.038s-21.557-36.037-48.055-36.037 c-35.343,0-64.098-23.363-64.098-52.082c0-23.902,20.847-45.215,49.57-50.675c3.774-0.718,6.506-4.018,6.506-7.859v-1.547 c0-4.423,3.599-8.021,8.021-8.021s8.021,3.599,8.021,8.021v1.645c0,3.853,2.746,7.158,6.534,7.864 c22.511,4.198,40.501,17.924,46.949,35.821c1.721,4.778,2.594,9.741,2.594,14.75c0,4.423-3.599,8.021-8.021,8.021 c-4.422,0-8.021-3.599-8.021-8.021c0-3.164-0.554-6.3-1.643-9.31c-5.668-15.737-24.753-26.728-46.412-26.728 c-26.497,0-48.055,16.166-48.055,36.037C207.947,295.563,229.503,311.731,256,311.731z"/> </g> </g>
</svg>